<?xml version="1.0" encoding="UTF-8"?>
<svg id="Ebene_1" data-name="Ebene 1" xmlns="http://www.w3.org/2000/svg" viewBox="0 0 254.4 55.16">
  <defs>
    <style>
      .cls-1 {
        fill: #1d1d1b;
      }
    </style>
  </defs>
  <path class="cls-1" d="M219.73,48.16h6.42v-18.2c0-7.26,4.11-10.05,8.33-10.05,3.99,0,6.78,2.5,6.78,8.86v19.39h6.43v-20.05c0-8.86-4.28-13.62-11.07-13.62-4.76,0-8.45,2.44-10.47,6.54h-.12v-5.59h-6.31v32.72Z"/>
  <path class="cls-1" d="M214.14,30.32c0-10.11-6.72-15.82-15.65-15.82-9.46,0-16.06,6.6-16.06,17.31s6.48,17.31,16.12,17.31c7.97,0,13.8-4.52,15.23-11.01h-6.78c-1.19,3.51-4.28,5.71-8.39,5.71-5.59,0-9.04-4.22-9.34-10.05h24.87v-3.45ZM189.33,28.77c.59-5.06,3.57-8.98,9.34-8.98s8.86,3.69,8.86,8.98h-18.2Z"/>
  <path class="cls-1" d="M163.81,20.86v18.56c0,5.83,3.03,8.75,8.8,8.75h8.03v-5.41h-6.48c-2.5,0-3.93-1.07-3.93-3.87v-18.03h10.17v-5.41h-10.17V6.52h-6.43v8.92h-16.54V6.52h-6.42v8.92h-6.43v5.41h6.43v18.56c0,5.83,3.03,8.75,8.8,8.75h8.03v-5.41h-6.48c-2.5,0-3.93-1.07-3.93-3.87v-18.03h16.54Z"/>
  <path class="cls-1" d="M132.16,30.32c0-10.11-6.72-15.82-15.65-15.82-9.46,0-16.06,6.6-16.06,17.31s6.48,17.31,16.12,17.31c7.97,0,13.8-4.52,15.23-11.01h-6.78c-1.19,3.51-4.28,5.71-8.39,5.71-5.59,0-9.04-4.22-9.34-10.05h24.87v-3.45ZM107.36,28.77c.6-5.06,3.57-8.98,9.34-8.98s8.86,3.69,8.86,8.98h-18.2Z"/>
  <polygon class="cls-1" points="71.6 48.16 99.5 48.16 99.5 42.75 80.29 42.75 80.29 42.69 98.19 20.26 98.19 15.44 72.79 15.44 72.79 20.8 89.57 20.8 89.57 20.86 71.6 43.29 71.6 48.16"/>
  <path class="cls-1" d="M67.68,42.75c-1.55,0-2.14-.6-2.14-2.14v-14.87c0-6.48-3.75-11.24-13.27-11.24s-13.92,4.52-14.4,11.54h6.6c.3-3.99,3.33-6.25,7.85-6.25,3.81,0,6.78,1.61,6.78,4.88,0,2.38-1.55,3.75-4.82,3.75h-5.24c-6.48,0-12.43,2.86-12.43,10.29,0,6.84,4.94,10.41,11.24,10.41,5.12,0,9.34-2.38,11.42-7.38h.12v1.55c0,3.03,1.96,4.88,5.35,4.88h4.28v-5.41h-1.37ZM59.11,33.35c0,7.2-4.64,10.41-9.58,10.41-4.34,0-6.13-2.38-6.13-5.17s1.78-5.12,6.31-5.18l2.56-.06c3.69-.06,5.65-1.13,6.72-3.39h.12v3.39Z"/>
  <polygon class="cls-1" points="6.52 48.16 13.18 48.16 13.18 30.02 33.17 30.02 33.17 24.49 13.18 24.49 13.18 12.05 35.49 12.05 35.49 6.52 6.52 6.52 6.52 48.16"/>
</svg>